<?xml version="1.0" encoding="utf-8"?>
<!-- Generator: Adobe Illustrator 16.0.0, SVG Export Plug-In . SVG Version: 6.00 Build 0)  -->
<!DOCTYPE svg PUBLIC "-//W3C//DTD SVG 1.1//EN" "http://www.w3.org/Graphics/SVG/1.1/DTD/svg11.dtd">
<svg version="1.1"
	 id="svg8" xmlns:dc="http://purl.org/dc/elements/1.1/" xmlns:cc="http://creativecommons.org/ns#" xmlns:rdf="http://www.w3.org/1999/02/22-rdf-syntax-ns#" xmlns:svg="http://www.w3.org/2000/svg" xmlns:sodipodi="http://sodipodi.sourceforge.net/DTD/sodipodi-0.dtd" xmlns:inkscape="http://www.inkscape.org/namespaces/inkscape" sodipodi:docname="logo svg.svg" inkscape:version="0.92.1 r15371"
	 xmlns="http://www.w3.org/2000/svg" xmlns:xlink="http://www.w3.org/1999/xlink" x="0px" y="0px" width="311px" height="162px"
	 viewBox="147.138 175.445 311 162" enable-background="new 147.138 175.445 311 162" xml:space="preserve">
<defs>
	
	
		<inkscape:perspective  id="perspective56" inkscape:vp_z="210 : 148.5 : 1" inkscape:vp_y="0 : 1000 : 0" inkscape:vp_x="0 : 148.5 : 1" sodipodi:type="inkscape:persp3d" inkscape:persp3d-origin="105 : 99 : 1">
		</inkscape:perspective>
	
		<inkscape:perspective  id="perspective56-4" inkscape:vp_z="40.719765 : 96.33928 : 1" inkscape:vp_y="0 : 1000 : 0" inkscape:vp_x="-169.28024 : 96.33928 : 1" sodipodi:type="inkscape:persp3d" inkscape:persp3d-origin="-64.280235 : 46.83928 : 1">
		</inkscape:perspective>
</defs>
<sodipodi:namedview  showgrid="false" inkscape:cy="560" inkscape:cx="400" inkscape:zoom="0.35" borderopacity="1.0" bordercolor="#666666" pagecolor="#ffffff" id="base" inkscape:window-maximized="1" inkscape:window-y="-8" inkscape:window-x="-8" inkscape:window-height="706" inkscape:window-width="1366" inkscape:current-layer="layer1" inkscape:document-units="mm" inkscape:pageshadow="2" inkscape:pageopacity="0.0">
	</sodipodi:namedview>
<g id="layer1" inkscape:groupmode="layer" inkscape:label="Capa 1">
	<g id="flowRoot14">
	</g>
	
		<g id="g58" sodipodi:type="inkscape:box3d" inkscape:corner7="-0.086199734 : 0.11858427 : 0.25 : 1" inkscape:corner0="0.093682213 : 0.12587304 : 0 : 1" inkscape:perspectiveID="#perspective56">
		<path id="path60" sodipodi:type="inkscape:box3dside" inkscape:box3dsidetype="6" fill="#353564" d="M272.143,222.999v18.891
			l60.121,33.314v-15.376L272.143,222.999z"/>
		<path id="path70" sodipodi:type="inkscape:box3dside" inkscape:box3dsidetype="11" fill="#E9E9FF" d="M332.264,259.828
			l51.356-24.903v17.753l-51.356,22.526V259.828z"/>
		<path id="path62" sodipodi:type="inkscape:box3dside" inkscape:box3dsidetype="5" fill="#4D4D9F" d="M272.143,222.999
			l53.571-38.966l57.906,50.892l-51.356,24.903L272.143,222.999z"/>
		<path id="path68" sodipodi:type="inkscape:box3dside" inkscape:box3dsidetype="13" fill="#AFAFDE" d="M272.143,241.889
			l53.571-35.247l57.906,46.035l-51.356,22.526L272.143,241.889z"/>
		<path id="path66" sodipodi:type="inkscape:box3dside" inkscape:box3dsidetype="14" fill="#D7D7FF" d="M325.714,184.033v22.609
			l57.906,46.035v-17.753L325.714,184.033z"/>
		<path id="path64" sodipodi:type="inkscape:box3dside" inkscape:box3dsidetype="3" fill="#8686BF" d="M272.143,222.999
			l53.571-38.966v22.609l-53.571,35.247V222.999z"/>
	</g>
	
		<g id="g72" sodipodi:type="inkscape:box3d" inkscape:corner7="0.093682213 : 0.12587305 : 0.25 : 1" inkscape:corner0="0.3103551 : 0.13920473 : 0 : 1" inkscape:perspectiveID="#perspective56">
		<path id="path74" sodipodi:type="inkscape:box3dside" inkscape:box3dsidetype="6" fill="#353564" d="M227.143,226.889v28.841
			l58.982,26.471v-24.22L227.143,226.889z"/>
		<path id="path84" sodipodi:type="inkscape:box3dside" inkscape:box3dsidetype="11" fill="#E9E9FF" d="M286.125,257.981
			l46.139-26.278v28.125l-46.139,22.373V257.981z"/>
		<path id="path76" sodipodi:type="inkscape:box3dside" inkscape:box3dsidetype="5" fill="#4D4D9F" d="M227.143,226.889l45-38.444
			l60.121,43.258l-46.139,26.278L227.143,226.889z"/>
		<path id="path82" sodipodi:type="inkscape:box3dside" inkscape:box3dsidetype="13" fill="#AFAFDE" d="M227.143,255.73l45-32.731
			l60.121,36.829l-46.139,22.373L227.143,255.73z"/>
		<path id="path80" sodipodi:type="inkscape:box3dside" inkscape:box3dsidetype="14" fill="#D7D7FF" d="M272.143,188.445v34.554
			l60.121,36.829v-28.125L272.143,188.445z"/>
		
			<linearGradient id="path78_1_" gradientUnits="userSpaceOnUse" x1="80.2056" y1="762.9236" x2="96.0806" y2="762.9236" gradientTransform="matrix(2.8346 0 0 -2.8346 -0.2136 2384.708)">
			<stop  offset="0" style="stop-color:#8686BF"/>
			<stop  offset="1" style="stop-color:#8686BF;stop-opacity:0"/>
		</linearGradient>
		<path id="path78" sodipodi:type="inkscape:box3dside" inkscape:box3dsidetype="3" fill="url(#path78_1_)" d="M227.143,226.889
			l45-38.444v34.554l-45,32.731V226.889z"/>
	</g>
	<text transform="matrix(1 0 0 1 167.1436 299.7478)" font-family="'ArialMT'" font-size="30">Andres covaleda</text>
	<path id="path170" inkscape:connector-curvature="0" fill="#0000FF" d="M374.675,265.836c12.11-10.944,26.029-20.625,41.718-25.683
		c3.738-2.097,7.842-2.812,12.049-3.157c2.522,0.309,4.723-1.271,7.185-1.442c0.716-0.049,2.613,0.257,3.336,0.359
		c3.551,0.694,7.218,0.356,10.71,1.279c0.562,0.325,1.123,0.649,1.685,0.975l-26.531,17.582l0,0
		c-0.407-0.12-0.814-0.241-1.222-0.361c-3.498-0.375-7.017-0.569-10.518-0.912c-3.409,0.114-6.657,1.508-10.104,1.496
		c-4.021,0.663-7.766,2.03-11.479,3.7c-10.957,4.972-2.896,1.409,22.207-13.272c0.868-0.508-1.769,0.959-2.611,1.507
		c-1.738,1.13-3.483,2.53-4.986,3.957c-0.698,0.663-1.332,1.393-1.998,2.089L374.675,265.836z"/>
	<path id="path179" inkscape:connector-curvature="0" fill="#00FFFF" d="M195.265,269.813c-3.219-6.563-7.706-12.171-12.715-17.431
		c-5.573-5.04-10.739-10.958-17.077-15.073c-3.246-0.972-5.356-3.621-8.559-4.64l26.473-17.688l0,0
		c3.098,1.534,5.704,3.843,8.819,5.37c6.015,4.846,11.372,10.505,17.009,15.771c5.186,5.389,9.808,11.067,13.47,17.625
		L195.265,269.813L195.265,269.813z"/>
	<rect id="rect181" x="158.571" y="299.747" fill="#00FFFF" width="267.857" height="21.429"/>
	<path id="path183" inkscape:connector-curvature="0" fill="#00FFFF" d="M171.747,244.485c-2.201-2.87-1.071-1.354-3.379-4.554
		l27.139-16.092l0,0c2.328,3.028,1.139,1.593,3.554,4.32L171.747,244.485L171.747,244.485z"/>
	<path id="path187" inkscape:connector-curvature="0" fill="#0000FF" d="M191.196,260.241c-5.487,0.544-10.624,2.783-16.178,2.82
		c-4.093-0.038-7.743-1.001-10.585-4.019c-2.047-3.035-3.841-5.712-2.951-9.447c28.03-17.132,22.125-16.769,43.709-17
		c4.537,0.215,8.99-0.472,13.516-0.451l-25.745,18.697l0,0c-4.398,0.005-8.792,0.454-13.196,0.292
		c-3.288,0.075-6.596,0.104-9.864,0.516c-11.129,1.402-25.543,13.835,21.096-14.169c-4.02-0.568-0.163,3.369,0.557,4.874
		c2.51,2.049,5.881,2.044,8.979,1.904c5.422-0.744,10.659-2.463,16.11-3.064L191.196,260.241z"/>
</g>
</svg>
